# xmcd
#
# Track frame offsets:
#	150
#	12104
#	29128
#	38791
#	48955
#	65791
#	79066
#	93237
#	103562
#	119945
#
# Disc length: 1845 seconds
#
# Revision: 0
# Processed by: cddbd v1.5.1PL0 Copyright (c) Steve Scherf et al.
# Submitted via: dBpowerAMP V4.0
#
DISCID=8507330a
DTITLE=Eldorado - Self-Titled
DYEAR=1900
DGENRE=Country
TTITLE0=Jaded Julie
TTITLE1=Honey Don't
TTITLE2=It's You
TTITLE3=Wildcat
TTITLE4=Spin Me Round
TTITLE5=Cold And Lonely Road
TTITLE6=Sniper
TTITLE7=Since You've Been Gone
TTITLE8=Mysterious Ways
TTITLE9=Rollin'
EXTD=MikeyPox
EXTT0=
EXTT1=
EXTT2=
EXTT3=
EXTT4=
EXTT5=
EXTT6=
EXTT7=
EXTT8=
EXTT9=
PLAYORDER=
